<?xml version="1.0" standalone="no"?>
<!DOCTYPE svg PUBLIC "-//W3C//DTD SVG 20010904//EN"
 "http://www.w3.org/TR/2001/REC-SVG-20010904/DTD/svg10.dtd">
<svg version="1.0" xmlns="http://www.w3.org/2000/svg"
 width="400.000000pt" height="400.000000pt" viewBox="0 0 400.000000 400.000000"
 preserveAspectRatio="xMidYMid meet">
<metadata>
Created by potrace 1.11, written by Peter Selinger 2001-2013
</metadata>
<g transform="translate(0.000000,400.000000) scale(0.100000,-0.100000)"
fill="#000000" stroke="none">
<path d="M2165 3908 c-8 -28 -15 -57 -15 -64 0 -6 -7 -17 -15 -24 -11 -9 -15
-34 -15 -94 -1 -75 -2 -79 -15 -56 -14 25 -14 25 -15 3 0 -14 -6 -23 -15 -23
-8 0 -15 7 -15 15 0 8 -4 15 -10 15 -5 0 -10 -7 -10 -15 0 -25 -30 -17 -31 8
l0 22 -9 -22 c-5 -13 -15 -23 -22 -23 -7 0 -23 -3 -35 -6 -16 -4 -23 0 -28 16
-11 34 -26 4 -23 -44 2 -24 -2 -41 -10 -44 -6 -2 -12 -9 -12 -16 0 -7 -7 -27
-15 -43 -14 -27 -22 -32 -83 -42 -37 -6 -86 -15 -110 -20 -42 -8 -60 -1 -47
19 8 13 5 13 -45 -5 -55 -19 -66 -19 -49 2 17 20 17 20 -90 -28 -56 -25 -69
-34 -55 -39 16 -6 14 -9 -14 -24 -19 -10 -35 -16 -37 -14 -1 2 -38 69 -80 151
-43 81 -81 147 -84 147 -3 0 -21 -9 -39 -20 l-33 -20 26 -43 c27 -47 30 -57
17 -57 -5 0 -19 19 -32 43 -13 23 -24 44 -26 46 -2 2 -19 -6 -38 -18 l-35 -22
92 -141 c51 -77 91 -143 90 -147 0 -3 -17 -10 -37 -15 -20 -4 -45 -20 -57 -35
-11 -14 -28 -37 -38 -51 l-19 -25 -34 38 -35 37 -11 -25 c-6 -14 -18 -25 -26
-25 -8 0 -18 -5 -22 -12 -5 -7 -3 -8 6 -3 9 5 11 4 6 -3 -4 -7 -15 -12 -24
-12 -13 0 -12 -3 5 -15 31 -22 38 -74 18 -134 -9 -28 -21 -53 -26 -57 -6 -3
-29 6 -52 21 l-42 28 33 -35 c34 -37 38 -48 21 -65 -8 -8 -66 29 -215 138
-113 82 -209 149 -213 149 -5 0 -25 -22 -44 -49 -33 -45 -36 -57 -42 -143 -5
-71 -4 -97 7 -110 7 -9 74 -48 148 -87 74 -39 141 -75 148 -80 11 -6 6 -23
-22 -80 -20 -39 -50 -113 -67 -163 -25 -73 -28 -92 -17 -99 7 -5 18 -8 23 -8
6 0 4 3 -3 6 -9 3 -5 13 14 31 21 22 23 28 10 30 -12 3 -14 10 -10 30 16 66
102 244 115 236 5 -3 7 -9 4 -14 -3 -4 0 -10 7 -12 9 -3 6 -15 -9 -40 -11 -19
-26 -51 -32 -71 -9 -27 -16 -35 -29 -31 -14 5 -15 4 -2 -4 12 -9 9 -23 -19
-91 -18 -44 -30 -85 -25 -92 4 -7 3 -10 -3 -6 -6 4 -14 0 -17 -9 -8 -22 -8
-26 4 -19 6 3 10 1 10 -5 0 -6 -8 -10 -17 -8 -10 2 -17 11 -15 21 2 11 -2 15
-13 11 -21 -8 -19 -19 7 -36 22 -15 22 -15 -17 -41 -22 -15 -34 -27 -28 -27 7
0 15 5 18 10 9 15 25 12 25 -6 0 -8 5 -12 11 -9 7 5 8 -13 3 -57 -6 -59 -22
-119 -23 -90 -1 21 -19 13 -23 -10 -3 -20 -6 -18 -25 17 -12 22 -22 36 -23 31
0 -5 11 -29 26 -53 14 -24 23 -47 20 -52 -3 -5 2 -8 11 -7 9 0 18 -5 21 -13 3
-10 -1 -12 -17 -8 -11 3 -21 2 -21 -3 0 -4 -14 -13 -30 -20 -40 -17 -80 -65
-80 -97 0 -38 33 -84 84 -118 25 -16 46 -37 46 -46 0 -9 3 -30 6 -46 5 -27 3
-30 -33 -41 -21 -7 -99 -26 -173 -42 -74 -16 -146 -32 -158 -35 -20 -5 -22 -8
-11 -21 6 -8 9 -18 5 -22 -4 -4 -16 4 -26 18 l-19 25 6 -40 c13 -89 19 -108
43 -124 23 -15 23 -15 17 8 -5 22 -5 22 14 5 19 -17 22 -17 91 5 79 26 83 24
93 -39 12 -77 39 -151 101 -272 l64 -126 -41 -41 c-39 -38 -44 -61 -14 -61 18
0 28 -30 14 -46 -9 -11 -5 -16 16 -26 14 -6 33 -24 40 -38 11 -20 22 -27 47
-28 18 0 37 -8 44 -16 9 -14 13 -14 32 0 17 11 26 12 42 4 11 -6 20 -15 20
-21 0 -6 5 -7 11 -3 8 4 9 -1 4 -17 -7 -22 -6 -23 7 -6 12 16 17 17 43 6 17
-7 41 -23 55 -35 14 -12 64 -49 111 -81 l86 -58 -61 -107 c-38 -67 -65 -104
-73 -101 -22 8 -15 -4 19 -36 39 -36 45 -38 53 -11 4 12 15 20 28 20 16 0 18
3 8 9 -10 7 -2 24 35 79 27 39 54 69 61 67 7 -2 10 2 7 10 -8 20 26 12 100
-24 34 -16 93 -39 131 -51 39 -13 75 -25 80 -29 6 -3 15 -6 20 -7 6 -1 21 -6
35 -12 20 -7 7 -10 -59 -11 -115 -2 -117 -11 -3 -11 65 0 92 4 92 12 0 9 3 9
11 1 6 -6 18 -9 25 -6 8 3 17 -2 20 -11 5 -12 11 -13 24 -6 13 7 21 6 26 -2 4
-7 3 -8 -4 -4 -7 4 -12 2 -12 -5 0 -11 11 -10 55 6 16 5 17 5 5 -4 -8 -5 -12
-13 -8 -16 3 -3 13 1 21 10 9 8 26 13 39 11 13 -3 28 -5 33 -6 6 0 2 -7 -8
-14 -16 -12 -16 -14 -1 -20 10 -4 23 2 35 15 18 21 19 21 19 3 0 -14 2 -16 9
-5 5 8 16 11 29 7 13 -4 22 -1 26 9 3 9 2 13 -4 10 -6 -3 -10 -3 -10 2 0 4
-39 9 -86 10 -151 3 -395 66 -544 140 l-75 38 0 47 c0 27 -3 48 -7 48 -5 0 -8
-18 -8 -40 0 -45 -5 -47 -39 -23 -23 16 -23 17 -5 30 10 8 17 16 15 19 -5 7
38 84 47 84 20 -1 52 -37 46 -53 -3 -9 -11 -14 -18 -10 -6 3 -8 2 -3 -2 4 -5
0 -19 -9 -33 -8 -13 -14 -26 -11 -28 2 -2 16 14 31 36 33 50 61 58 36 9 -10
-18 -3 -25 23 -20 5 1 6 -7 2 -18 -3 -11 0 -21 9 -24 8 -3 16 -1 18 5 2 6 19
2 42 -10 22 -12 42 -19 46 -17 4 3 13 -2 20 -10 7 -8 16 -12 21 -9 5 3 9 1 9
-3 0 -5 8 -9 18 -10 30 -2 74 -14 96 -25 12 -7 28 -13 36 -14 8 -2 19 -9 25
-16 5 -7 15 -14 20 -14 41 -5 135 -40 135 -51 0 -18 27 -16 34 2 4 12 10 14
25 5 17 -8 20 -6 23 13 3 22 18 24 83 12 11 -2 23 -4 28 -4 4 -1 7 -13 7 -27
0 -23 -3 -26 -25 -22 -14 3 -25 1 -25 -3 0 -5 9 -9 20 -9 17 0 20 -6 18 -40
-1 -33 3 -44 23 -58 13 -9 26 -16 29 -15 3 0 23 -6 44 -15 29 -12 41 -13 44
-4 2 7 10 12 18 12 8 0 15 11 15 28 2 25 2 26 6 3 3 -13 11 -30 18 -38 18 -18
55 -17 55 2 0 8 5 15 10 15 6 0 10 -13 10 -29 0 -35 29 -46 75 -30 28 11 30
14 26 56 -2 32 0 43 8 39 6 -4 11 -16 11 -27 0 -17 3 -18 21 -8 16 8 27 8 45
-2 13 -7 26 -10 28 -8 2 2 -4 47 -14 99 -17 86 -17 96 -3 107 11 9 14 21 9 43
l-6 31 28 -20 c38 -27 102 -98 131 -144 l24 -39 61 7 c81 10 77 9 113 28 18
10 40 29 49 42 9 14 24 25 33 25 10 0 27 11 40 23 18 20 20 28 11 51 -17 46
-13 121 9 140 27 24 181 97 192 90 5 -3 9 0 9 5 0 6 11 11 25 11 16 0 25 6 25
15 0 14 12 19 33 16 4 0 7 5 7 13 0 8 6 16 14 19 7 3 17 18 20 34 4 15 24 53
44 83 20 30 44 73 52 95 17 43 42 55 68 32 9 -8 27 -13 39 -11 22 4 73 -33 73
-53 0 -15 45 -53 63 -53 10 0 20 7 23 15 5 12 15 14 39 9 27 -5 35 -2 45 15
10 19 8 23 -18 32 -21 7 -28 15 -25 28 3 12 -5 24 -24 36 -15 10 -36 28 -46
39 -11 12 -26 21 -35 22 -10 1 -25 2 -34 3 -49 4 16 84 91 111 l53 19 90 -45
c49 -24 94 -42 99 -38 6 4 -37 33 -96 66 -62 35 -104 64 -101 71 57 136 84
289 56 322 -5 6 -7 15 -3 18 3 4 1 7 -5 7 -18 0 -15 13 8 38 11 12 20 30 20
42 0 11 5 20 10 20 6 0 10 5 10 10 0 6 -7 10 -15 10 -23 0 -29 27 -12 45 9 8
25 15 36 15 27 0 27 27 1 35 -16 5 -18 12 -13 38 4 18 7 51 7 74 1 28 6 43 14
43 21 0 26 30 7 44 -14 10 -17 21 -12 48 3 22 0 46 -9 63 -17 34 -18 32 7 38
18 5 19 10 13 44 -8 43 -20 55 -51 50 -16 -3 -23 2 -28 20 -3 13 -3 27 -1 32
3 4 -1 32 -9 61 -14 52 -10 69 17 70 3 0 4 9 1 20 -4 15 0 20 16 20 11 0 21 5
21 10 0 6 -11 8 -25 4 -18 -4 -25 -2 -25 8 0 8 11 21 25 28 36 19 31 33 -10
28 -31 -4 -33 -2 -20 12 19 21 19 41 0 34 -17 -7 -21 11 -5 21 16 10 2 25 -23
25 -16 1 -10 7 25 25 43 23 47 29 59 79 8 39 18 58 35 67 31 16 24 22 -10 9
-22 -8 -35 -6 -59 6 -18 9 -39 20 -47 24 -9 5 -34 -3 -63 -19 l-48 -26 -24 29
c-13 16 -21 36 -18 44 5 11 1 13 -16 7 -14 -4 -23 -2 -27 9 -3 9 -12 16 -20
16 -19 0 -18 16 2 24 9 3 14 13 11 21 -4 9 10 26 36 47 23 18 54 45 69 59 l27
26 -25 11 c-28 13 -30 24 -9 42 8 7 13 16 10 20 -3 4 2 13 10 20 26 21 16 31
-12 13 -32 -21 -32 -21 42 87 72 105 72 105 44 89 -13 -6 -55 -33 -94 -59
-100 -66 -100 -66 -80 -36 26 40 9 44 -28 8 -26 -25 -36 -29 -45 -20 -10 10
-26 -2 -76 -51 -67 -66 -91 -73 -98 -29 -2 17 -9 22 -26 21 -12 -2 -23 2 -23
7 -1 6 -2 16 -3 23 -1 6 1 17 4 22 4 6 10 19 14 30 7 19 6 19 -16 -1 -29 -26
-59 -44 -40 -23 6 7 12 19 12 27 0 12 -5 11 -26 -3 -32 -21 -38 -16 -24 21
l11 29 -28 -27 -29 -27 -43 28 c-25 17 -51 27 -62 24 -29 -8 -24 14 26 101 25
44 45 83 45 87 0 4 -18 18 -40 30 -30 17 -39 27 -34 41 4 14 -2 21 -24 29 -30
10 -95 96 -91 121 3 27 -1 48 -10 48 -6 0 -22 -11 -37 -25 -15 -14 -35 -25
-46 -25 -10 0 -41 -10 -68 -22 -48 -22 -51 -26 -72 -92 -24 -73 -37 -86 -60
-62 -13 13 -132 41 -203 48 -27 3 -31 8 -41 48 -6 25 -13 39 -15 31 -3 -9 -10
-11 -18 -7 -9 6 -11 29 -6 92 5 55 4 84 -3 84 -6 0 -16 32 -22 70 -6 39 -13
70 -16 70 -2 0 -10 -23 -19 -52z m-28 -160 c-3 -7 -5 -2 -5 12 0 14 2 19 5 13
2 -7 2 -19 0 -25z m20 0 c-3 -7 -5 -2 -5 12 0 14 2 19 5 13 2 -7 2 -19 0 -25z
m30 0 c-3 -7 -5 -2 -5 12 0 14 2 19 5 13 2 -7 2 -19 0 -25z m20 0 c-3 -7 -5
-2 -5 12 0 14 2 19 5 13 2 -7 2 -19 0 -25z m517 -279 c-9 -15 -34 -10 -28 5 3
8 12 12 20 9 8 -3 11 -9 8 -14z m-1210 -68 c-39 -15 -106 -47 -149 -70 -42
-22 -75 -36 -73 -29 6 16 130 83 200 108 83 30 101 23 22 -9z m1359 -6 c-3 -9
-8 -14 -10 -11 -3 3 -2 9 2 15 9 16 15 13 8 -4z m18 -18 c-10 -9 -11 -8 -5 6
3 10 9 15 12 12 3 -3 0 -11 -7 -18z m-1646 -17 c17 -33 18 -40 7 -40 -11 0
-43 56 -35 64 10 9 11 8 28 -24z m-34 -120 c-40 -30 -81 -52 -81 -43 0 11 92
74 99 67 3 -3 -5 -14 -18 -24z m1052 -95 c264 -40 533 -181 707 -372 230 -252
354 -613 321 -933 -31 -293 -148 -539 -355 -746 -188 -188 -401 -298 -656
-339 -253 -40 -493 -4 -725 109 -681 333 -894 1200 -443 1807 268 363 703 542
1151 474z m-1733 -1259 c0 -35 3 -84 6 -110 6 -40 5 -46 -10 -40 -12 5 -16 19
-16 57 0 28 -3 47 -7 43 -4 -4 -6 -25 -4 -47 l3 -40 -30 15 c-34 17 -82 71
-82 91 0 21 32 54 75 75 62 30 65 28 65 -44z m18 -219 c2 -15 -1 -27 -7 -27
-6 0 -11 3 -11 8 0 4 -3 18 -7 31 -4 18 -2 23 8 19 8 -2 15 -17 17 -31z m-138
-141 c0 -17 -34 -31 -50 -21 -16 10 8 35 31 35 11 0 19 -6 19 -14z m3262 -13
c3 -2 2 -18 -4 -36 -5 -17 -10 -38 -11 -44 0 -8 -10 -11 -26 -8 l-26 5 25 -10
c20 -9 22 -13 10 -20 -9 -6 -10 -10 -3 -10 6 0 9 -9 6 -20 -4 -16 -11 -19 -27
-14 -36 11 -45 27 -11 20 26 -5 27 -5 10 5 -11 7 -21 13 -23 15 -2 1 2 12 8
24 6 12 14 31 16 43 3 12 7 29 9 37 2 8 4 18 4 22 1 6 23 2 43 -9z m-3462 -39
c0 -8 -5 -12 -10 -9 -6 4 -8 11 -5 16 9 14 15 11 15 -7z m234 -59 c4 -11 -3
-19 -20 -25 -32 -13 -31 -13 -38 5 -4 10 2 19 17 25 31 12 34 12 41 -5z m105
-27 c23 -62 23 -68 2 -68 -25 0 -49 69 -28 82 17 11 16 11 26 -14z m-89 -37
c0 -20 -32 -37 -50 -26 -17 10 -11 25 13 35 33 13 37 12 37 -9z m3165 -12 c16
-16 -20 -10 -41 7 -18 14 -18 15 6 8 14 -3 29 -10 35 -15z m-5 -30 c0 -4 -13
-3 -30 2 -16 6 -28 15 -25 20 6 9 55 -10 55 -22z m-15 -20 c16 -16 -20 -10
-41 7 -18 14 -18 15 6 8 14 -3 29 -10 35 -15z m-3121 -4 c7 -20 -42 -41 -58
-25 -8 8 -6 15 8 26 25 18 42 18 50 -1z m141 -76 c25 -51 27 -62 15 -69 -8 -6
-18 -10 -21 -10 -11 0 -60 120 -54 130 14 23 33 7 60 -51z m-117 8 c2 -11 -6
-19 -23 -23 -38 -9 -53 10 -24 30 27 19 43 16 47 -7z m26 -62 c8 -22 -40 -44
-57 -26 -9 10 -8 15 7 27 25 18 42 18 50 -1z m2862 -183 c-22 -5 -30 3 -21 18
5 8 11 7 22 -2 15 -12 14 -13 -1 -16z m-103 -49 c-5 -11 -3 -14 6 -8 19 11 3
-36 -19 -57 -9 -9 -27 -32 -39 -52 -22 -35 -32 -42 -44 -30 -6 6 5 21 61 84
54 62 36 59 -23 -3 -48 -53 -75 -65 -75 -35 0 6 7 5 17 -3 13 -11 15 -11 9 -1
-10 16 49 82 73 82 8 0 11 3 8 7 -4 3 1 12 11 19 22 17 23 17 15 -3z m-2718
-3 c-3 -5 -12 -10 -18 -10 -7 0 -6 4 3 10 19 12 23 12 15 0z m81 -56 c2 -5
-11 -20 -27 -33 -42 -33 -61 -13 -22 23 27 26 44 29 49 10z m49 -34 c6 -9 -50
-50 -69 -50 -6 0 3 14 19 30 31 32 40 36 50 20z m2460 -40 c0 -7 -8 -18 -18
-24 -25 -16 -43 12 -19 31 20 15 37 12 37 -7z m-2425 1 c0 -12 -29 -35 -47
-37 -11 -2 -8 5 8 22 23 25 39 31 39 15z m2454 -30 c3 -4 -1 -17 -9 -27 -11
-15 -16 -16 -26 -7 -10 10 -9 15 1 28 14 17 26 19 34 6z m-98 -39 c-9 -2 -16
-7 -16 -12 0 -14 -33 -21 -41 -9 -4 7 4 22 20 35 24 21 27 22 39 6 11 -14 10
-18 -2 -20z m40 -23 c7 -11 -11 -27 -30 -27 -5 0 -13 -6 -17 -14 -8 -11 -11
-11 -18 1 -6 10 -3 20 12 32 25 21 43 24 53 8z m-2226 -6 c0 -3 -8 -16 -17
-27 -13 -15 -10 -14 10 3 15 14 27 20 27 14 0 -18 -37 -44 -54 -37 -20 8 -20
13 1 36 16 18 33 24 33 11z m2120 -15 c0 -6 8 -17 17 -24 10 -7 14 -16 10 -20
-9 -9 -57 47 -50 59 6 10 23 -1 23 -15z m-25 -18 c3 -5 2 -10 -4 -10 -5 0 -13
5 -16 10 -3 6 -2 10 4 10 5 0 13 -4 16 -10z m-2049 -11 c3 -6 -1 -18 -10 -27
-11 -11 -16 -12 -16 -4 0 7 -4 10 -10 7 -14 -9 -13 8 2 23 15 15 25 15 34 1z
m2024 -10 c0 -6 -4 -7 -10 -4 -5 3 -10 2 -10 -3 0 -6 -7 -13 -16 -16 -10 -4
-13 -2 -7 7 20 33 43 42 43 16z m-1982 -35 c-4 -3 -16 -3 -28 1 -17 5 -19 9
-9 21 11 13 14 13 28 0 8 -9 12 -18 9 -22z m2032 15 c0 -5 -4 -9 -10 -9 -5 0
-10 7 -10 16 0 8 5 12 10 9 6 -3 10 -10 10 -16z m-1969 2 c8 12 10 12 19 -1 8
-13 11 -13 19 -1 9 14 31 7 31 -9 0 -5 -16 -35 -35 -65 -41 -63 -36 -64 -139
12 -47 34 -55 43 -37 43 12 0 32 -5 44 -12 18 -9 24 -7 41 15 15 21 22 24 34
15 10 -9 16 -8 23 3z m1939 -12 c0 -5 -4 -8 -9 -5 -5 4 -11 3 -13 -2 -1 -4
-20 -17 -40 -29 -27 -16 -35 -18 -31 -7 3 8 22 23 42 34 42 22 51 24 51 9z
m-1920 -159 c0 -5 6 -9 13 -7 15 3 16 -25 1 -30 -13 -4 -44 23 -44 38 0 5 7 9
15 9 8 0 15 -4 15 -10z m0 -65 c0 -6 -8 -20 -17 -31 -21 -23 -38 -50 -55 -81
-6 -13 -21 -23 -32 -23 -17 0 -18 -2 -6 -10 20 -13 4 -13 -21 0 -22 13 -22 14
48 122 43 67 46 69 64 52 10 -9 19 -22 19 -29z"/>
<path d="M1612 2448 c-8 -8 -12 -61 -12 -174 0 -169 6 -193 44 -178 13 5 16
21 16 80 l0 74 65 0 65 0 0 -63 c0 -69 16 -104 44 -94 14 6 16 28 16 181 0
155 -2 175 -17 180 -28 11 -43 -22 -43 -91 l0 -63 -65 0 -65 0 0 68 c0 61 -10
92 -30 92 -3 0 -11 -5 -18 -12z"/>
<path d="M1930 2445 c-9 -10 -11 -50 -9 -134 4 -129 12 -150 73 -195 61 -46
174 -17 211 54 17 33 22 275 6 284 -5 4 -16 3 -25 0 -13 -5 -16 -24 -16 -109
0 -119 -11 -160 -51 -180 -43 -23 -77 -18 -110 14 -29 29 -29 31 -29 143 0 75
-4 118 -12 126 -16 16 -23 15 -38 -3z"/>
<path d="M2304 2447 c-2 -7 -3 -89 -2 -182 3 -162 4 -170 23 -170 19 0 20 8
25 120 l5 120 43 -57 c23 -32 46 -58 50 -58 14 0 28 15 63 64 l34 48 3 -110
c2 -82 6 -113 17 -122 12 -10 18 -10 30 0 12 10 15 43 15 175 0 132 -3 165
-15 175 -20 16 -32 6 -90 -76 -26 -35 -50 -64 -54 -64 -4 0 -25 26 -47 57 -61
89 -88 111 -100 80z"/>
<path d="M1773 1973 c186 -2 488 -2 670 0 183 1 31 2 -338 2 -369 0 -518 -1
-332 -2z"/>
<path d="M2414 1876 c-37 -17 -74 -61 -74 -90 0 -49 49 -87 136 -106 80 -18
108 -62 62 -94 -32 -22 -94 -20 -138 5 -40 23 -70 20 -70 -5 0 -18 73 -61 116
-69 47 -9 104 9 138 42 63 64 25 144 -83 170 -86 21 -102 31 -99 60 2 19 12
29 40 39 34 13 41 12 83 -8 49 -24 78 -21 73 7 -4 23 -83 63 -123 63 -16 -1
-44 -7 -61 -14z"/>
<path d="M1607 1873 c-4 -3 -7 -84 -7 -179 0 -174 3 -189 38 -177 9 3 12 36
12 119 0 63 3 114 8 114 4 0 22 -23 41 -50 20 -30 41 -50 52 -50 11 0 34 21
57 52 l37 52 3 -111 c2 -83 6 -114 17 -123 12 -10 18 -10 30 0 21 17 22 332 1
349 -21 18 -37 5 -89 -69 -27 -39 -51 -70 -55 -70 -4 0 -31 34 -60 75 -49 70
-69 85 -85 68z"/>
<path d="M1991 1866 c-10 -11 -12 -49 -10 -133 4 -105 7 -122 28 -152 63 -88
195 -87 250 3 20 31 21 46 19 163 -3 120 -4 128 -23 128 -19 0 -20 -8 -25
-123 l-5 -124 -33 -29 c-38 -34 -65 -36 -109 -9 -18 11 -34 21 -34 22 -1 2 -5
61 -8 133 -5 108 -9 130 -22 133 -9 1 -22 -4 -28 -12z"/>
<path d="M2963 3696 c12 -18 24 -32 25 -31 9 8 -11 46 -28 55 -17 9 -17 7 3
-24z"/>
<path d="M3179 3631 c8 -5 10 -14 6 -21 -6 -9 -4 -11 5 -5 8 5 18 1 27 -10 10
-15 13 -16 13 -3 0 18 -31 48 -51 48 -12 0 -12 -2 0 -9z"/>
<path d="M3112 3527 c13 -13 25 -20 26 -15 5 13 -18 38 -35 38 -9 0 -7 -7 9
-23z"/>
<path d="M3233 3501 c8 -23 13 -28 15 -16 2 10 -3 25 -12 33 -14 15 -15 13 -3
-17z"/>
<path d="M3377 3478 c6 -7 9 -24 7 -38 -3 -19 -2 -22 6 -10 15 23 12 47 -6 54
-13 5 -14 3 -7 -6z"/>
<path d="M511 2134 c0 -11 3 -14 6 -6 3 7 2 16 -1 19 -3 4 -6 -2 -5 -13z"/>
<path d="M776 553 c-6 -14 -5 -15 5 -6 7 7 10 15 7 18 -3 3 -9 -2 -12 -12z"/>
<path d="M1140 386 c0 -2 8 -10 18 -17 15 -13 16 -12 3 4 -13 16 -21 21 -21
13z"/>
<path d="M1280 306 c0 -2 7 -7 16 -10 8 -3 12 -2 9 4 -6 10 -25 14 -25 6z"/>
<path d="M1158 253 c12 -2 30 -2 40 0 9 3 -1 5 -23 4 -22 0 -30 -2 -17 -4z"/>
<path d="M1555 250 c-3 -5 -1 -10 4 -10 6 0 11 5 11 10 0 6 -2 10 -4 10 -3 0
-8 -4 -11 -10z"/>
<path d="M1874 199 c-1 -20 2 -26 7 -17 11 16 12 48 2 48 -5 0 -8 -14 -9 -31z"/>
<path d="M1804 165 c3 -20 33 -45 54 -45 12 0 11 4 -3 20 -14 16 -20 17 -27 8
-7 -12 -9 -11 -12 11 0 5 -4 12 -8 16 -3 4 -5 -1 -4 -10z"/>
</g>
</svg>
